# xmcd
#
# Track frame offsets:
#	150
#	25842
#	46329
#	63426
#	84351
#	97923
#	112980
#	132934
#	151811
#	170518
#	189222
#	212704
#	231269
#	255501
#	273526
#	284278
#	303272
#	314994
#	328929
#	341926
#
# Disc length: 4707 seconds
#
# Revision: 1
# Processed by: cddbd v1.4PL0 Copyright (c) Steve Scherf et al.
# Submitted via: audiograbber 1.80
#
DISCID=1e126114
DTITLE=John Lee Hooker - Blues Masters
DYEAR=1900
DGENRE=
TTITLE0=The Healer
TTITLE1=I`m in The Mood
TTITLE2=Baby Lee
TTITLE3=Cutfin ` Out
TTITLE4=Think Twice Before You Go
TTITLE5=Sally Mae
TTITLE6=That`s Allright
TTITLE7=Rockin ` Chair
TTITLE8=My Dream
TTITLE9=No substitute
TTITLE10=It ServesYou Right To Suffer
TTITLE11=You Know,I know
TTITLE12=I`m Bad Like Jesse Jamas
TTITLE13=Burinig Hell
TTITLE14=Big Legs, Tight skirt
TTITLE15=Shake It Baby
TTITLE16=Boom Boom
TTITLE17=Hobo Blues
TTITLE18=Huckle Up baby
TTITLE19=Ineed Some money
EXTD=
EXTT0=
EXTT1=
EXTT2=
EXTT3=
EXTT4=
EXTT5=
EXTT6=
EXTT7=
EXTT8=
EXTT9=
EXTT10=
EXTT11=
EXTT12=
EXTT13=
EXTT14=
EXTT15=
EXTT16=
EXTT17=
EXTT18=
EXTT19=
PLAYORDER=
